<svg width="20" height="20" viewBox="0 0 20 20" fill="none" xmlns="http://www.w3.org/2000/svg">
<g clip-path="url(#clip0_68_9)">
<path d="M17.9063 2.51172C15.6484 0.613283 12.1602 0.898439 10 3.09766C7.83985 0.898439 4.35157 0.609377 2.09375 2.51172C-0.843746 4.98438 -0.414058 9.01563 1.67969 11.1523L8.53126 18.1328C8.92188 18.5312 9.44532 18.7539 10 18.7539C10.5586 18.7539 11.0781 18.5352 11.4688 18.1367L18.3203 11.1563C20.4102 9.01953 20.8477 4.98828 17.9063 2.51172ZM16.9844 9.83594L10.1328 16.8164C10.0391 16.9102 9.96094 16.9102 9.86719 16.8164L3.01563 9.83594C1.58985 8.38281 1.30079 5.63281 3.30079 3.94922C4.82032 2.67188 7.16407 2.86328 8.63282 4.35938L10 5.75391L11.3672 4.35938C12.8438 2.85547 15.1875 2.67188 16.6992 3.94531C18.6953 5.62891 18.3984 8.39453 16.9844 9.83594Z" fill="black"/>
</g>
<defs>
<clipPath id="clip0_68_9">
<rect width="20" height="20" fill="white"/>
</clipPath>
</defs>
</svg>
