<svg width="18" height="18" viewBox="0 0 18 18" fill="none" xmlns="http://www.w3.org/2000/svg">
<path d="M12.3366 11.1128C13.5932 10.0767 14.4166 8.4549 14.4166 6.65285C14.46 3.49931 11.99 0.976562 9.00006 0.976562C6.01013 0.976562 3.54006 3.54441 3.54006 6.65285C3.54006 8.49985 4.36344 10.0767 5.62006 11.1128C2.84668 12.284 0.853516 14.897 0.853516 17.9151H2.67352C2.67352 14.8066 5.53352 12.3288 9.00006 12.3288C12.4667 12.3289 15.3266 14.8517 15.3266 17.9151H17.1466C17.1466 14.8968 15.1534 12.284 12.3366 11.1128V11.1128ZM8.99998 2.64315C11.1234 2.64315 12.8134 4.4452 12.8134 6.65247C12.8134 8.85997 11.0801 10.6618 8.99998 10.6618C6.91991 10.6618 5.18653 8.85973 5.18653 6.65247C5.18653 4.44512 6.87653 2.64315 8.99998 2.64315V2.64315Z" fill="black"/>
</svg>
